<?xml version="1.0" encoding="UTF-8" standalone="no"?>
<svg
   xmlns:dc="http://purl.org/dc/elements/1.1/"
   xmlns:cc="http://creativecommons.org/ns#"
   xmlns:rdf="http://www.w3.org/1999/02/22-rdf-syntax-ns#"
   xmlns:svg="http://www.w3.org/2000/svg"
   xmlns="http://www.w3.org/2000/svg"
   id="svg90"
   viewBox="0 0 1781.6903 1762.4216"
   style="clip-rule:evenodd;fill-rule:evenodd;image-rendering:optimizeQuality;shape-rendering:geometricPrecision;text-rendering:geometricPrecision"
   version="1.1"
   height="1762.7201"
   width="1781.6903"
   xml:space="preserve"><metadata
   id="metadata94"><rdf:RDF><cc:Work
       rdf:about=""><dc:format>image/svg+xml</dc:format><dc:type
         rdf:resource="http://purl.org/dc/dcmitype/StillImage" /><dc:title></dc:title></cc:Work></rdf:RDF></metadata>
 <defs
   id="defs4">
  <style
   id="style2"
   type="text/css">
   <![CDATA[
    .fil16 {fill:dimgray}
    .fil13 {fill:#7A1515}
    .fil27 {fill:#7D7D7D}
    .fil14 {fill:#838383}
    .fil19 {fill:#8C8C8C}
    .fil32 {fill:#949494}
    .fil18 {fill:#999999}
    .fil10 {fill:#9F2626}
    .fil8 {fill:#A1A1A1}
    .fil23 {fill:#B4B4B4}
    .fil3 {fill:#B5B5B5}
    .fil12 {fill:#B63030}
    .fil17 {fill:#BABABA}
    .fil9 {fill:#C23636}
    .fil7 {fill:#C2C2C2}
    .fil6 {fill:#C93636}
    .fil30 {fill:#CAC8C8}
    .fil22 {fill:#CDCDCD}
    .fil0 {fill:#D43939}
    .fil4 {fill:#D63A3A}
    .fil5 {fill:#D73C3C}
    .fil31 {fill:#D9D7D7}
    .fil21 {fill:#DD4242}
    .fil26 {fill:#E03F3F}
    .fil2 {fill:#E23E3E}
    .fil28 {fill:#E5E3E3}
    .fil1 {fill:#E8E6E6}
    .fil11 {fill:#EB5050}
    .fil20 {fill:#F25454}
    .fil29 {fill:#F2F2F2}
    .fil24 {fill:#F8F7F7}
    .fil15 {fill:#FAF9F9}
    .fil25 {fill:#FCFBFB}
    .fil33 {fill:black;fill-rule:nonzero}
   ]]>
  </style>
 </defs>
 <g
   transform="translate(-1130.3298,-666.45083)"
   id="Ebene_x0020_1">
  <metadata
   id="CorelCorpID_0Corel-Layer" />
  <path
   style="fill:#d43939"
   id="path7"
   d="m 2291.76,2318.92 -33.91,-38.7 c -53.7,-66.93 -62.59,-153.91 -67.82,-240.28 -3.66,-60.49 -2.22,-120.35 -9.08,-180.51 -3.37,-29.55 -17.84,-140.33 -31.57,-156.6 -15.68,0.98 -94.48,23.69 -121.34,29.01 -20.18,3.99 -40.52,10.69 -60.81,15.1 -74.86,16.26 -44.89,20.95 -125.41,4.91 -79.37,-15.8 -685.64,-124.12 -699.21,-129.42 l -0.68,-5.44 c -4.15,8.18 -1.25,477.69 -1.17,563.9 0.02,24.15 -1.95,57.88 0.12,80.69 142.62,32.27 291.03,63.02 434.49,93.17 l 290.95,62.55 c 18.3,3.93 19.26,4.32 37.16,-0.12 12.12,-3.01 23.34,-5.98 35.23,-8.95 l 211.61,-53.49 c 46.66,-11.46 95.29,-25.97 141.44,-35.82 z"
   class="fil0" />
  <path
   style="fill:#e8e6e6"
   id="path9"
   d="m 2168.25,680.73 4.77,0.83 c 0.35,2.85 16.84,29.01 19.1,33.08 6.64,11.96 12.65,23.76 18.74,36.01 l 53.9,109.92 c 6.18,12.27 12.85,23.33 18.62,35.82 4.93,10.66 34.5,64.86 34.85,75.3 -7.45,5.95 -12.97,11.26 -20.61,18.7 -20.39,19.88 -10,8.4 -21.25,16.69 -4.96,3.66 -0.88,2.78 -9.81,9.95 -3.08,2.46 -6.49,6.19 -9.78,9.8 -12.99,14.26 -21.67,19.9 -29.27,28.31 -4.17,4.61 -6.25,5.5 -10.58,9.33 -7.74,6.85 -10.47,12.15 -13.32,15.35 l -45.04,41.1 c -7.55,0.2 -8.31,1.4 -12.15,-3.32 l 3.64,-0.65 -48.6,-14.6 c -15.76,-4.59 -32.73,-9.06 -48.69,-13.16 l -72.6,-20.15 c -7.1,-1.88 -19.91,-2.91 -23.76,-7.94 L 1864.01,914 c -0.44,-0.7 -1.3,-2.07 -1.86,-2.73 -1.39,-1.63 -1.24,-1.25 -2.66,-2.48 l -25.56,57.35 c -13.89,35.98 -10.95,27.71 -19.39,64.31 -16.34,70.89 -24.9,68.26 -14.52,141.22 2.2,15.45 1.9,21.19 5.66,35.48 3.16,12.01 6.39,21.97 10.09,32.53 2.31,6.57 4.18,6.86 7.01,12.39 2.56,5.03 3.56,9.81 7.21,14.22 l 2.91,3.14 c 0.18,0.23 0.5,0.55 0.66,0.79 0.83,1.2 10.21,21.25 19.81,34.87 l 28.29,35.42 c 1.86,2.24 7.05,8.82 9.43,10.33 2.28,1.44 4.37,1.41 7.44,3.19 l 8.52,6.64 c 0.01,0.01 3.4,1.96 3.84,2.25 l 63.73,51.3 c 15.49,10.66 39.1,17.88 58.76,24.67 42.69,14.72 85.59,37.68 122.39,64.11 l 22.54,19.8 27.72,34.61 c 30.49,37.44 40.34,71.32 53.04,115.49 4,13.9 6.68,18.81 7.44,34.99 4.68,3.24 1.76,-0.7 3.11,6.12 2.91,14.59 2.7,9.09 4.21,27.33 0.98,11.84 5,24.83 6.02,37.89 2.05,26.05 0.32,23.85 5.8,49.22 0.77,3.57 -0.54,6.17 2.12,19.08 l 4.54,28.78 c 0.92,6.38 1.15,11.01 1.18,19.57 0.05,14.67 2.67,27.17 4.47,40.16 1.97,14.16 2,26.09 5.12,40.12 l 26.88,167.88 c 4.48,21.78 4.8,18.48 9.1,34.37 l 15.98,51.19 c 3.91,10.37 7.2,22.42 11.83,32.08 l 11.05,21.08 c 3.29,4.93 1.38,4.55 8.15,5.76 -0.29,-7.36 0.12,-1.24 -6.33,-14.96 -1.79,-3.81 -3.84,-6.43 -5.9,-10.73 -1.94,-4.08 -4.12,-6.98 -5.68,-10.96 l -11.01,-29.89 c -1.63,-5.24 -0.8,-1.25 -2.71,-6.32 -3.38,-8.96 -8.79,-34.72 -14.97,-53.17 -2.32,-6.93 -3.76,-20.04 -5.45,-28 -2.14,-10.07 -2.97,-18.51 -4.94,-28.52 -1.94,-9.89 -4.76,-19.28 -5.17,-29.74 6.66,-2.94 -0.61,1.22 5.89,-1.54 l -1.46,-13.59 c 5.1,-1.42 3.34,-0.67 6,-4.52 -1.53,-3.86 0.44,-1.01 -4.48,-4.55 3.01,-4.65 7.95,-7.1 9.56,-10.13 3.43,-6.42 1.51,-10.6 1.02,-17.16 l 7.52,-7.66 c -2.9,-10.69 -6.73,-7.57 -2.03,-27.85 5.15,-22.21 6.68,-8.37 8.12,-26.73 l 5.9,-2.95 c -3,-6.43 -14.89,-68.85 -14.81,-72.69 2.28,-1.25 3.39,-1.48 5.39,-3.11 -2.31,-17.03 -25.75,-113.8 -31.42,-139.53 -5.1,-23.14 -10.56,-47.47 -15.49,-70.99 -4.42,-21.13 -15.21,-50.58 -7.87,-73.53 22.44,-70.07 98.67,-103.97 163.27,-77.07 18.63,7.76 40.6,22.88 49.71,36.01 20.76,9.57 19.33,35.36 31.21,55.24 l 11.41,32.24 10.7,29.43 118.6,321.46 c 2.89,2.59 1.41,-1.49 3.8,4.76 0.12,-10.22 -7.8,-30.74 -10.89,-40.32 -2.22,-6.91 -12.32,-34.12 -12.55,-38.99 -0.31,-0.36 -0.82,-1.31 -0.95,-1.04 l -22.08,-57.52 c -3.13,-10.18 -6.53,-19.55 -9.75,-29.61 l -7.9,-22.62 c -3.67,-9.74 -1.51,-5.47 -0.9,-7.05 3.97,2.62 4.45,4.66 4.97,10.91 4.42,2.19 1.08,-3.59 5,5.36 1.06,2.43 2.43,9.74 3.28,3.46 1.67,1.95 1.42,0.9 2.65,4.37 0.68,1.92 0.83,2.72 1.17,6.13 4.33,-2.55 1.47,-3.2 9.64,7.03 5.1,6.38 -0.88,8.56 8.49,11.22 -1.27,3.92 -0.18,2.68 -2.97,4.43 4.7,2.01 0.86,-0.47 4.48,3.17 4.1,4.11 2.13,-1.42 3.1,5.98 2.13,-5.84 -0.49,0.04 3.03,-3.09 1.86,7.41 6.42,4.83 9.67,9.25 4.16,5.67 -1.94,1.88 5.61,5.15 6.74,2.92 1.33,2.76 6.74,4.92 12.88,5.15 5.03,12.08 12.85,3.48 0.64,7.21 -2,2.61 4.16,5.95 2.16,-4.22 -3.98,-2.08 3.29,-3.75 5.71,-1.31 1.84,3.17 7.99,-0.05 -0.65,-12.89 -28.9,-68.69 -34.51,-90.16 -17.57,-54.02 -44.57,-108.78 -66.38,-159.99 -5.68,-13.33 -12.5,-26.4 -17.84,-39.75 -13.82,-34.51 -29.74,-104.8 -29.84,-140.88 -0.37,-136.72 90.65,-197.22 90.92,-365.36 0.11,-67.55 -21.17,-128.32 -48.11,-179.86 -23.06,-44.11 -41.11,-66.85 -69.76,-101.58 l -14.13,-14.69 c -6.05,-5.86 -3.23,-5.3 -13.54,-13.75 -3.44,-2.81 -4.9,-3.79 -8.13,-7.04 l -23.65,-18.83 c -10.38,-7.61 -21.59,-15.1 -33.86,-22.24 -63.02,-36.68 -95.86,-47.61 -170.22,-57.14 -13.7,-1.76 -100.35,-5.57 -105.28,3.46 z"
   class="fil1" />
  <path
   style="fill:#e23e3e"
   id="path11"
   d="m 1141.93,1616.99 2.71,-2.97 c 8.31,3.33 36.43,7.31 47.77,9.45 15.67,2.97 31.34,5.53 47.29,8.63 l 285.09,52.89 c 39.03,7.57 370.76,71.15 379.47,68.72 l -6.26,-0.78 -17.12,-266.58 c -2.18,-4.6 -1.53,-2.19 -5.86,-5.82 l -56.88,-59.82 c -16.23,-20.22 -37.53,-54.29 -48.74,-78.61 l -24.78,-59.61 c -40.74,-5.65 -84.65,-14.65 -126.08,-20.99 -41.47,-6.34 -83.82,-13.38 -124.13,-20.82 -63.7,-11.75 -125.2,-20.37 -188.57,-31.52 l -46.69,-7.78 c -8.36,-1.52 -12.72,-1.08 -15.08,-4.83 -7.45,5.76 -12.13,39.26 -14.69,50.53 -3.97,17.5 -8.53,34.94 -12.7,52.53 -11.48,48.35 -76.05,306.34 -74.75,317.38 z"
   class="fil2" />
  <path
   style="fill:#b5b5b5"
   id="path13"
   d="m 2569.48,2023.53 c 4.6,-4.01 24.73,-2.47 30.3,-1.81 53.86,6.38 97.17,49.78 111.05,101.02 15.23,56.25 -2.01,98.71 -38.41,135.41 -3.23,3.26 -31.15,26.94 -34.4,22.58 -18.57,5.01 -22.88,14.47 -61.04,15.5 -22.94,0.62 -45.08,-6.07 -63,-14.42 -64.66,-30.14 -95.26,-118.26 -61.47,-181.5 l 23.45,-34.1 c 7.87,-9.18 22.26,-19.32 33.15,-25.93 18.49,-11.21 37.49,-13.98 60.37,-16.75 z m -183.41,264.99 c 2.73,4.48 6.48,8.34 10.02,14.13 3.52,5.77 7.48,9.88 9.76,14.27 3.89,1.21 2.73,-0.42 7.54,4.88 l 31.9,31.66 c 4.63,4.09 3.26,1.39 6.53,6.63 43.18,23.63 82.66,39.35 136.09,28.86 3.53,-0.69 6.44,-1.4 9.83,-2.4 14.26,-4.19 7.84,-1.83 10.04,-0.18 8.48,-2.84 0.87,-3.18 12.34,-8.11 16.73,-7.19 22.89,-10.68 38.64,-20.31 17.52,-10.72 30.1,-22.28 43.24,-35.37 23.1,-23.03 48.05,-54.35 63.15,-92.64 7.44,-18.86 16.43,-39.04 17.55,-61.17 1.22,-24.17 0.42,-48.19 -4.02,-71.4 -4.41,-23.01 -23.96,-111.93 -33.46,-123.64 -1.16,5.66 1.82,1.64 -2.17,4.58 -0.77,-3.34 -0.29,-3.88 -3.29,-5.48 -4.42,-2.36 -9.23,-1.57 -13.52,-1.21 -2.12,0.17 -1.5,-0.1 -5.8,0.63 1.12,-3.09 1.11,-2.5 1.51,-6.07 -3.74,2.45 -3.09,2.84 -6.48,-1.08 -5.05,-5.83 1.61,-8.51 -4.24,-8.99 l -6.01,-2.45 c 0.07,-0.15 0.32,-0.59 0.37,-0.75 0.97,-3.47 -0.13,4.33 -0.51,-1.91 l 1.59,-2.82 c -9.29,-0.07 -1.6,1.78 -12.13,2.97 -2.88,-4.37 -1.78,-2.73 -4.02,-8.53 l -7,-19.45 c -3.25,-1.08 -4.83,-1.63 -9.06,-1.96 1.37,-5.12 0.06,-5.53 -7.58,-6.07 0.8,-2.19 -2.58,0.64 -5.66,2.66 l -0.21,4.66 c 0.23,4.87 10.33,32.08 12.55,38.99 3.09,9.58 11.01,30.1 10.89,40.32 -2.39,-6.25 -0.91,-2.17 -3.8,-4.76 0.89,6.13 0.74,2.43 -0.86,3.2 1.25,2.79 1.37,2.47 1.38,5.8 -8.09,0.93 -15.5,-9.56 -36.06,-17.44 -15.05,-5.78 -28,-8.59 -45.74,-10.47 -31.8,-3.38 -70.58,3.31 -96.18,13.87 -49.93,20.58 -91.98,53.08 -100.67,107.03 -1.05,6.53 -0.76,7.37 -7.38,7.47 -2.13,-35.82 13.56,-60.36 30.02,-77.41 l 29.74,-24.83 c 43.66,-33.73 118.57,-47.07 174.17,-32.69 7.5,1.94 12.41,3.62 19.7,7.03 6.73,3.15 12.18,7.28 19.87,9 -3.41,-12.92 -9.85,-27.69 -14.38,-40.16 -12.67,-34.9 -97.03,-258.14 -97.61,-268.73 -4.77,-3.89 -8.42,-18.63 -10.31,-24.98 -1.51,-5.08 -1.83,-11.57 5.01,-7.58 l -11.41,-32.24 c -0.64,-0.02 -1.44,-0.18 -1.91,-0.15 l -2.9,0.54 c -0.23,-0.37 -0.65,0.47 -0.98,0.69 l -25.42,-56.32 c -9.11,-13.13 -31.08,-28.25 -49.71,-36.01 -64.6,-26.9 -140.83,7 -163.27,77.07 -7.34,22.95 3.45,52.4 7.87,73.53 4.93,23.52 10.39,47.85 15.49,70.99 5.67,25.73 29.11,122.5 31.42,139.53 -2,1.63 -3.11,1.86 -5.39,3.11 -0.08,3.84 11.81,66.26 14.81,72.69 l -5.9,2.95 c -1.44,18.36 -2.97,4.52 -8.12,26.73 -4.7,20.28 -0.87,17.16 2.03,27.85 l -7.52,7.66 c 0.49,6.56 2.41,10.74 -1.02,17.16 -1.61,3.03 -6.55,5.48 -9.56,10.13 4.92,3.54 2.95,0.69 4.48,4.55 -2.66,3.85 -0.9,3.1 -6,4.52 l 1.46,13.59 c -6.5,2.76 0.77,-1.4 -5.89,1.54 0.41,10.46 3.23,19.85 5.17,29.74 1.97,10.01 2.8,18.45 4.94,28.52 1.69,7.96 3.13,21.07 5.45,28 6.18,18.45 11.59,44.21 14.97,53.17 1.91,5.07 1.08,1.08 2.71,6.32 l 11.01,29.89 c 1.56,3.98 3.74,6.88 5.68,10.96 2.06,4.3 4.11,6.92 5.9,10.73 6.45,13.72 6.04,7.6 6.33,14.96 z"
   class="fil3" />
  <path
   style="fill:#d63a3a"
   id="path15"
   d="m 2600.18,1592.29 c 6.4,18.09 16.43,36.89 23.81,54.99 7.67,18.82 16.69,37.41 24.26,56.09 15.39,37.96 32.19,75.89 45.7,115.68 5.82,11.81 12.23,29.21 17.53,42.38 31.71,78.74 75.09,191.41 80.04,275.42 1.95,33.06 -2.78,37.66 -3.35,55.62 l 101.1,-26.73 c 1.58,-26.44 0.78,-53.61 1.76,-80.41 2.91,-79.75 1.89,-162.16 4.39,-244.07 1.63,-53.89 2.05,-108.36 2.83,-162.17 0.35,-23.52 5.34,-151.07 1.82,-162.27 -4.57,4.83 -10.25,5.07 -17.79,6.87 l -131.8,31.89 c -48.26,11.7 -101.93,22.56 -150.3,36.71 z"
   class="fil4" />
  <path
   style="fill:#d73c3c"
   id="path17"
   d="m 2658.56,1162.33 c -3.22,8.01 -4.22,19.25 -6.44,27.7 -2.45,9.33 -4.71,17.15 -7.68,25.92 -17.58,51.95 -41.58,99.3 -56,145.63 -11.7,37.61 -20.2,73.54 -15.63,115.91 2.12,19.65 16.07,97.52 25.48,107.15 24.04,-4.41 49.55,-12.99 73.83,-17.94 24.58,-5.01 50.98,-12.45 75.52,-18.4 25.29,-6.13 50.67,-12.52 75.46,-18.57 12.81,-3.12 25.18,-6.31 37.97,-9.53 8.27,-2.07 30.95,-9.62 38.82,-7.12 -0.34,-9.75 -48.97,-178.96 -52.73,-191.95 l -51.43,-183.62 c -1.51,-5.42 -0.41,-3.92 -3.73,-5.97 -1.69,1.72 -0.53,1.36 -3.72,2.5 z"
   class="fil5" />
  <path
   style="fill:#c93636"
   id="path19"
   d="m 1597.13,782.53 c -35.66,57.16 -7.31,106.37 18.33,160.12 14.45,30.27 104.91,225.3 114.01,235.51 -2.98,-34.56 0.91,-69.82 10.47,-101.17 4.79,-15.71 8.48,-27.81 15.07,-42.54 6.24,-13.93 15.21,-27.2 20.15,-39.29 -5.31,-5.54 -22.83,-47.1 -27.3,-57.5 -6.65,-15.46 -24.77,-44.11 -20.93,-61.89 1.29,-5.96 2.67,-10.67 6.3,-14.65 6.84,-7.49 39.01,-10.41 49.95,-12.22 23.64,-3.93 47.06,-8.13 70.77,-12.48 47.29,-8.68 94.98,-16.61 141.46,-25.02 46.37,-8.39 95.7,-18.65 141.76,-24.9 -5.76,-14.58 -26.63,-47.18 -28.61,-59.46 0.52,-3.53 32.92,-34.73 36.32,-40.96 z"
   class="fil6" />
  <path
   style="fill:#c2c2c2"
   id="path21"
   d="m 2567.52,2400.29 c -43.41,-3.41 -62.91,-1.48 -107.15,-25.43 -20.58,-11.13 -22.07,-11.59 -40.3,-26.45 -15.25,-12.42 -21.19,-19.04 -34.08,-34.16 -21.15,-24.83 -36.71,-53.34 -48.01,-85.42 -11.4,-32.38 -20.24,-72.46 -26.83,-107.89 -14.27,-76.65 -25.98,-158.13 -34.81,-234.21 -6.82,-58.77 -16.42,-163.61 -35.78,-222.67 -0.21,-0.65 -0.92,-2.83 -1.27,-3.49 -2.26,-4.3 -0.76,-1.27 -2.31,-3.07 l 0.42,4.92 c -6.68,4.47 -3.45,5.08 -12.87,12.9 l -3.4,2.65 c -3.86,2.56 -5.31,3.74 -9.3,5.85 -17.74,9.42 -30.22,4.12 -36.44,4.58 -6.79,0.52 -5.13,2.38 -14.41,6.8 l -3.03,1.76 c -0.04,-0.15 -0.28,0.21 -0.42,0.32 14.1,37.86 17.11,74.84 25.2,115.24 5.65,28.18 11.26,99.84 11.26,129.55 0,64.03 9.23,198.94 27.68,253.18 9.35,27.49 31.15,69.14 50.56,90.31 l 15.99,18.88 c 6.52,8.06 10.84,10.32 17.86,17 3.63,3.44 5.26,4.82 9.19,8.97 l 19.77,15.09 c 33.49,23.33 64.41,40.89 106.42,51.02 22.61,5.45 37.59,7.5 61.24,9.39 10.15,0.81 58.75,-2.15 64.82,-5.62 z"
   class="fil7" />
  <path
   style="fill:#a1a1a1"
   id="path23"
   d="m 1780.53,986.28 -5.37,8.88 c -4.94,12.09 -13.91,25.36 -20.15,39.29 -6.59,14.73 -10.28,26.83 -15.07,42.54 -9.56,31.35 -13.45,66.61 -10.47,101.17 l 0.64,21.1 -0.17,7.72 c 4.19,9.02 4.28,27.71 6.78,38.68 2.87,12.59 5.27,24.63 7.9,36.83 l 24.78,59.61 c 11.21,24.32 32.51,58.39 48.74,78.61 l 56.88,59.82 c 4.33,3.63 3.68,1.22 5.86,5.82 13.69,6.87 31.16,24.3 74.27,44.43 51.83,24.2 106.85,51.17 144.01,92.49 16.8,18.67 37.03,42.19 47.53,72.52 l 2.69,7.04 c 13.73,16.27 28.2,127.05 31.57,156.6 6.86,60.16 5.42,120.02 9.08,180.51 5.23,86.37 14.12,173.35 67.82,240.28 l 33.91,38.7 7.9,7.5 c 3.95,6.32 32.76,28.01 39.92,32.75 l 47.39,26.89 c 23.11,11.65 49.39,18.46 74.91,23.63 34.46,6.99 77.53,5.52 111.18,-2.29 7.88,-1.83 12.87,-3.48 20.31,-5.46 10.85,-2.89 24.54,-8.8 34.65,-13.87 15.7,-7.87 32.68,-17.2 46.27,-28.01 4.38,-3.48 8.53,-7.58 13.08,-11.17 39.75,-31.28 68.78,-74.2 88.71,-120.51 l 10.42,-27.78 1.67,-8.13 c 0.57,-17.96 5.3,-22.56 3.35,-55.62 -4.95,-84.01 -48.33,-196.68 -80.04,-275.42 -5.3,-13.17 -11.71,-30.57 -17.53,-42.38 -8.63,-4.79 -7.82,-13.99 -15.88,-20.67 5.61,21.47 33.86,77.27 34.51,90.16 6.66,5.9 13.53,32.62 17.29,42.38 5.62,14.56 10.19,28.63 15.35,42.81 9.5,11.71 29.05,100.63 33.46,123.64 4.44,23.21 5.24,47.23 4.02,71.4 -1.12,22.13 -10.11,42.31 -17.55,61.17 -15.1,38.29 -40.05,69.61 -63.15,92.64 -13.14,13.09 -25.72,24.65 -43.24,35.37 -15.75,9.63 -21.91,13.12 -38.64,20.31 -11.47,4.93 -3.86,5.27 -12.34,8.11 -11.35,1.31 -24.64,12.89 -40.26,13.92 -6.07,3.47 -54.67,6.43 -64.82,5.62 -23.65,-1.89 -38.63,-3.94 -61.24,-9.39 -42.01,-10.13 -72.93,-27.69 -106.42,-51.02 l -19.77,-15.09 c -3.93,-4.15 -5.56,-5.53 -9.19,-8.97 -7.02,-6.68 -11.34,-8.94 -17.86,-17 l -15.99,-18.88 c -19.41,-21.17 -41.21,-62.82 -50.56,-90.31 -18.45,-54.24 -27.68,-189.15 -27.68,-253.18 0,-29.71 -5.61,-101.37 -11.26,-129.55 -8.09,-40.4 -11.1,-77.38 -25.2,-115.24 0.14,-0.11 0.38,-0.47 0.42,-0.32 l 3.03,-1.76 c 9.28,-4.42 7.62,-6.28 14.41,-6.8 6.22,-0.46 18.7,4.84 36.44,-4.58 3.99,-2.11 5.44,-3.29 9.3,-5.85 l 3.4,-2.65 c 9.42,-7.82 6.19,-8.43 12.87,-12.9 l -0.42,-4.92 c -0.97,-20.44 -36.6,-78.86 -50.7,-97.11 -13.23,-17.14 -20.92,-24.44 -35.95,-38.28 -6.16,-5.67 -37.45,-28.67 -44.74,-30.29 -2.38,2.19 -2.02,1.98 -4.7,3.85 -6.35,4.41 -14.8,1.02 -11.82,9.32 -5.68,0.19 -4.85,-0.61 -7.69,2.97 -4.81,6.08 0.91,3.76 -6.32,10.29 l -17.66,17.3 c -3.81,4.41 -2.93,2.86 -1.86,8.74 -5.81,0.62 -4.73,0.94 -7.4,4.63 -2.93,4.06 -2.09,2.76 -5.88,5.86 0.36,5.17 2.07,5.21 -0.12,9.34 -2.08,0.58 -1.38,1.05 -5.55,-1.11 l -82.73,-41.52 c -16.6,-7.62 -69.35,-40.28 -78.66,-53.3 12.08,-3.09 17.12,-5.37 26.46,-14.15 7.82,-7.35 19.23,-13.95 15.8,-22.18 4.61,-2.39 2.12,-0.36 5.15,-3.88 1.75,-2.02 2.61,-3.45 3.89,-5.19 2.9,-3.96 5.59,-5.5 6.06,-12.09 3.3,1.46 2.36,2.73 4.68,0.31 -2.77,-3.98 -40.38,-29.79 -49.13,-40.58 l -11.23,-11.45 c -3.03,-2.93 -1.27,-1.58 -4.8,-3.55 l -1.77,3.64 c -7.07,-3.85 -3.56,1.04 -5.7,-4.54 -9.6,6.37 -0.34,9.09 -10.83,12.19 1.12,3.32 0.77,2.7 2.96,4.48 -5.27,2.06 -1.73,2.1 -7.06,3.74 -5.05,1.55 -2.54,1 -6.87,5.12 l -7.98,5.58 c -8.2,6.55 -6.63,-4.49 -12.87,6.54 l -12.07,1.87 c -5.81,-4.96 -18.03,-24.87 -22.79,-33.33 -6.51,-11.57 -13.04,-25.25 -18.35,-37.81 -7.48,-17.71 -17.2,-44.44 -21.04,-63.67 -0.92,-4.64 -3.05,-20.05 -4.31,-22.82 3.87,-3.7 1.07,0.42 2.96,-4.4 8.14,1.84 7.15,-1.3 15.16,-3.11 -0.07,-0.36 -0.53,-3.05 -0.55,-3.3 0,-0.11 0.15,-0.36 0.15,-0.66 0,-0.26 0.17,-0.34 0.26,-0.51 3.39,0.81 3.56,1.19 7.72,1.51 1.36,-3.9 0.17,-1.73 3.75,-2.96 l 14.41,-1.57 c 5.65,-0.27 3.47,0.98 5.96,-1.68 0,8.78 -0.54,1.51 2.69,4.54 -3.85,-23.12 -9.51,-43.76 -9.61,-68.6 -2.47,1.49 -2.86,-1.02 -2.98,9.01 -7,0 -10.38,1.52 -19.39,1.52 -1.99,5.01 0.74,3.79 -2.55,4.39 -14.78,2.66 -14.82,8.15 -23.07,9.01 -1.12,-21.43 -2.19,-82.39 9.57,-100.21 3.5,-13.42 13.66,-49.9 23.38,-57.91 2.49,-17.05 48.53,-76.54 66.62,-96.66 0.55,-0.62 2.8,-3.22 2.83,-3.24 1.78,-1.87 0.77,-0.9 2.77,-2.38 1.67,-3.62 3,-4.44 5.82,-8.73 3.17,-4.8 2.45,-5.52 8.03,-7.53 l 2.16,5.84 c 1.42,1.23 1.27,0.85 2.66,2.48 0.56,0.66 1.42,2.03 1.86,2.73 l 92.4,147.1 c 3.85,5.03 16.66,6.06 23.76,7.94 l 72.6,20.15 c 15.96,4.1 32.93,8.57 48.69,13.16 l 48.6,14.6 c 5.66,-2.2 5.07,-1.67 8.61,-7.38 l -5.49,1.37 c -8.23,-5.12 -21.56,-4.55 -28.66,-11.29 -4.67,0.25 -143.35,-37.09 -150.34,-40.54 -6.92,-1.17 -10.7,-0.73 -12.35,-6.13 -0.28,-0.27 -0.74,-1.05 -0.86,-0.79 L 1936,1013.28 c -4.41,-6.7 -7.74,-12.91 -12.09,-19.75 -4.54,-7.14 -8.29,-13.11 -13.07,-20.28 l -44.3,-70.91 c -8.86,-15.11 -21.33,3.98 -32.02,14.58 -1.7,1.68 -3.06,2.8 -4.54,4.56 l -32.49,40.28 c -6.15,8.18 -10.73,16.16 -16.96,24.52 z"
   class="fil8" />
  <path
   style="fill:#c23636"
   id="path25"
   d="m 1904.26,1753.71 c 20.31,-0.93 218.33,-55.77 242.43,-57.92 -10.5,-30.33 -30.73,-53.85 -47.53,-72.52 -37.16,-41.32 -92.18,-68.29 -144.01,-92.49 -43.11,-20.13 -60.58,-37.56 -74.27,-44.43 l 17.12,266.58 z"
   class="fil9" />
  <path
   style="fill:#9f2626"
   id="path27"
   d="m 1730.11,1199.26 -0.64,-21.1 c -9.1,-10.21 -99.56,-205.24 -114.01,-235.51 -25.64,-53.75 -53.99,-102.96 -18.33,-160.12 -45.49,9.96 -88.97,44.48 -95.56,89.92 -7.33,50.48 17.55,107.57 35.04,147.56 15.4,35.21 43.89,83.16 62.38,122.58 19.97,42.57 14.77,34.41 51.26,41.44 26.09,5.03 53.66,11.11 79.86,15.23 z"
   class="fil10" />
  <path
   style="fill:#eb5050"
   id="path29"
   d="m 1244.07,1196.55 c 2.36,3.75 6.72,3.31 15.08,4.83 l 46.69,7.78 c 63.37,11.15 124.87,19.77 188.57,31.52 40.31,7.44 82.66,14.48 124.13,20.82 41.43,6.34 85.34,15.34 126.08,20.99 -2.63,-12.2 -5.03,-24.24 -7.9,-36.83 -2.5,-10.97 -2.59,-29.66 -6.78,-38.68 -15.34,-2.12 -110.29,-19.18 -117.59,-23.13 -6.77,-8.81 -21.33,-39.3 -26.94,-51.97 l -299.53,55.24 c -10.15,2.03 -36.38,4.11 -41.81,9.43 z"
   class="fil11" />
  <path
   style="fill:#b63030"
   id="path31"
   d="m 2503.11,2265.74 127.04,-32.79 c 16.43,-52.26 3.89,-105.91 -25.55,-146.38 -14.36,-19.74 -37.95,-37.39 -63.37,-42.75 -16.96,-3.57 -19.41,-2.34 -32.16,5.49 -60.68,37.25 -80.38,115.15 -47.07,172.23 8.08,13.85 28.69,39.63 41.11,44.2 z"
   class="fil12" />
  <path
   style="fill:#7a1515"
   id="path33"
   d="m 2299.66,2326.42 -7.9,-7.5 c -46.15,9.85 -94.78,24.36 -141.44,35.82 l -211.61,53.49 c -11.89,2.97 -23.11,5.94 -35.23,8.95 -17.9,4.44 -18.86,4.05 -37.16,0.12 l -290.95,-62.55 c -143.46,-30.15 -291.87,-60.9 -434.49,-93.17 -2.07,-22.81 -0.1,-56.54 -0.12,-80.69 -0.08,-86.21 -2.98,-555.72 1.17,-563.9 -1.3,-11.04 63.27,-269.03 74.75,-317.38 4.17,-17.59 8.73,-35.03 12.7,-52.53 2.56,-11.27 7.24,-44.77 14.69,-50.53 5.43,-5.32 31.66,-7.4 41.81,-9.43 l 299.53,-55.24 c 5.61,12.67 20.17,43.16 26.94,51.97 7.3,3.95 102.25,21.01 117.59,23.13 l 0.17,-7.72 c -26.2,-4.12 -53.77,-10.2 -79.86,-15.23 -36.49,-7.03 -31.29,1.13 -51.26,-41.44 -18.49,-39.42 -46.98,-87.37 -62.38,-122.58 -17.49,-39.99 -42.37,-97.08 -35.04,-147.56 6.59,-45.44 50.07,-79.96 95.56,-89.92 l 547.75,-96.45 c 2.25,-2.11 3.74,-4.19 6.18,-5.99 1.99,-1.47 2.4,-1.23 3.67,-2.19 2.16,-1.62 0.49,-0.15 2.08,-2.4 l -30.7,5.44 c -11.73,2.08 -20.59,3.57 -32.09,5.81 l -477.81,84.63 c -27.13,4.71 -28.17,2.66 -52.13,13.06 -4.3,1.86 -2.82,1.54 -6.85,3.75 -72.91,40.04 -75.77,102.65 -50.38,181.25 l 72.61,154.8 -158.54,29.44 c -32.89,6.41 -157.79,27.54 -178.62,33.62 -9.98,2.92 -7.92,4.21 -10.31,13.95 l -27.59,114.92 c -7.69,35.44 -19.74,77.21 -27.6,113.38 l -18.49,77.02 c -1.65,6.53 -2.56,11.81 -4.24,18.5 -1.76,6.95 -3.61,13.52 -4.82,19.44 l -18.46,75.53 c -1.59,13.56 1.45,159.54 1.45,187.91 0,147.94 1.6,301.37 -0.02,448.75 -0.15,13.33 -0.34,11.45 10.73,13.53 47.65,8.92 106.29,23.75 154.63,33.35 13.26,2.63 25.31,5.17 38.69,8.31 l 196.08,41.93 c 100.72,19.77 210.23,47.02 310.77,66.71 43.33,8.49 34.81,12.52 77.16,1.12 l 227.37,-57.63 c 11.92,-2.98 24.87,-5.77 37.61,-9.39 15.53,-4.42 106.5,-28.03 114.4,-28.21 z"
   class="fil13" />
  <path
   style="fill:#838383"
   id="path35"
   d="m 2165.36,819.84 c 7.92,-0.39 3.1,0.58 7.51,-2.66 8.28,-6.06 4.31,-4.57 11.15,-7.57 5.98,-2.62 5.53,-7.27 8.8,-11.92 6.11,-8.68 0.03,-9.05 14.26,-16.67 1.67,9.76 17.38,32.13 23.41,45.21 3.67,7.96 7.42,14.31 12.18,22.66 l 58.16,113.13 c -19.91,15.98 -10.58,11.57 -18.09,18.05 -10.13,8.74 -19.65,15 -29.01,26.98 -5.66,-2.68 -9.63,-2.52 -13.57,-7.32 l 10.05,-9.32 c -1.22,-9.27 -79.55,-154.07 -84.85,-170.57 z m -8.55,-144.34 c -1.59,2.25 0.08,0.78 -2.08,2.4 -1.27,0.96 -1.68,0.72 -3.67,2.19 -2.44,1.8 -3.93,3.88 -6.18,5.99 -3.4,6.23 -35.8,37.43 -36.32,40.96 1.98,12.28 22.85,44.88 28.61,59.46 l 4.36,8.76 97.38,191.02 -19.63,19.71 c -2.47,3.17 -6.85,6.87 -10.41,9.86 -1.75,3.45 -0.02,1.15 -2.78,4.35 -1.3,1.49 -0.57,0.5 -2.36,2.18 l -79.21,77.27 c 7.1,6.74 20.43,6.17 28.66,11.29 l 5.49,-1.37 38.94,-35.75 c 3.94,-3.88 4.88,-6.41 9.3,-10.38 l 28.54,-26.07 c 1.97,-2.21 2.61,-3.81 4.63,-5.95 1.64,-1.74 2.91,-2.71 4.71,-4.38 l 28.65,-25.95 c 7.15,-7.07 6.42,-8.1 18.76,-19.12 5.77,-5.17 14.5,-11.77 18.05,-18.43 0.63,-4.13 -142.22,-274.1 -143.57,-279.79 -1.03,-4.35 -2.6,-2.15 1.57,-3.02 4.93,-9.03 91.58,-5.22 105.28,-3.46 74.36,9.53 107.2,20.46 170.22,57.14 12.27,7.14 23.48,14.63 33.86,22.24 l 23.65,18.83 c 3.23,3.25 4.69,4.23 8.13,7.04 10.31,8.45 7.49,7.89 13.54,13.75 l 14.13,14.69 c 28.65,34.73 46.7,57.47 69.76,101.58 26.94,51.54 48.22,112.31 48.11,179.86 -0.27,168.14 -91.29,228.64 -90.92,365.36 0.1,36.08 16.02,106.37 29.84,140.88 5.34,13.35 12.16,26.42 17.84,39.75 21.81,51.21 48.81,105.97 66.38,159.99 8.06,6.68 7.25,15.88 15.88,20.67 -13.51,-39.79 -30.31,-77.72 -45.7,-115.68 -7.57,-18.68 -16.59,-37.27 -24.26,-56.09 -7.38,-18.1 -17.41,-36.9 -23.81,-54.99 l -1.89,-7.65 c -9.41,-9.63 -23.36,-87.5 -25.48,-107.15 -4.57,-42.37 3.93,-78.3 15.63,-115.91 14.42,-46.33 38.42,-93.68 56,-145.63 2.97,-8.77 5.23,-16.59 7.68,-25.92 2.22,-8.45 3.22,-19.69 6.44,-27.7 l 0.41,-4.74 4.13,-59.7 0.11,-7.01 c 0.88,-18.29 -1.97,-36.98 -4.52,-52.9 -10.68,-66.65 -40.81,-130.9 -78.65,-185.13 -2.24,-3.21 -3.93,-5.07 -6.39,-8.78 -2.33,-3.53 -3.76,-5.22 -6.38,-8.77 -21,-28.33 -39.88,-49.52 -67.89,-71.59 l -84.79,-54.68 c -26.03,-10.24 -38.64,-19.79 -74.4,-28.68 -8.37,-2.08 -15.19,-3.19 -23.84,-4.97 -27.58,-5.66 -84.95,-12.36 -108.36,-8.06 -14.48,2.66 -33.41,0.36 -51.18,8.18 z"
   class="fil14" />
  <path
   style="fill:#faf9f9"
   id="path37"
   d="m 1843.48,919.21 c -3.09,9.24 -8.41,19.03 -12.29,28.02 -3.99,9.24 -7.46,18.71 -11.19,28.3 -3.12,8.01 -17,54.5 -20,57.19 l -12.01,58.31 c 0.93,7.58 -1.24,22.9 -1.6,31.62 -0.46,11.04 0.23,22.03 -0.09,33.03 0.1,24.84 5.76,45.48 9.61,68.6 10.6,23.18 11.89,41.43 30.85,72.56 7.69,12.62 29.4,42.58 39.69,52.84 3.22,3.21 3.44,2.15 5.63,5.75 3.53,1.97 1.77,0.62 4.8,3.55 l 11.23,11.45 c 8.75,10.79 46.36,36.6 49.13,40.58 7.88,2.82 4.92,2.26 11.15,6.76 38.56,27.81 81.36,35.75 118.01,51.95 8.23,3.64 27.52,12.38 34.94,17.88 l 4.25,4.22 c 7.29,1.62 38.58,24.62 44.74,30.29 15.03,13.84 22.72,21.14 35.95,38.28 14.1,18.25 49.73,76.67 50.7,97.11 1.55,1.8 0.05,-1.23 2.31,3.07 0.35,0.66 1.06,2.84 1.27,3.49 19.36,59.06 28.96,163.9 35.78,222.67 8.83,76.08 20.54,157.56 34.81,234.21 6.59,35.43 15.43,75.51 26.83,107.89 11.3,32.08 26.86,60.59 48.01,85.42 12.89,15.12 18.83,21.74 34.08,34.16 18.23,14.86 19.72,15.32 40.3,26.45 44.24,23.95 63.74,22.02 107.15,25.43 15.62,-1.03 28.91,-12.61 40.26,-13.92 -2.2,-1.65 4.22,-4.01 -10.04,0.18 -3.39,1 -6.3,1.71 -9.83,2.4 -53.43,10.49 -92.91,-5.23 -136.09,-28.86 -14.82,-6.16 -41.65,-30.77 -45.97,-43.17 -2.28,-4.39 -6.24,-8.5 -9.76,-14.27 -3.54,-5.79 -7.29,-9.65 -10.02,-14.13 -6.77,-1.21 -4.86,-0.83 -8.15,-5.76 l -11.05,-21.08 c -4.63,-9.66 -7.92,-21.71 -11.83,-32.08 l -15.98,-51.19 c -4.3,-15.89 -4.62,-12.59 -9.1,-34.37 l -26.88,-167.88 c -3.12,-14.03 -3.15,-25.96 -5.12,-40.12 -1.8,-12.99 -4.42,-25.49 -4.47,-40.16 -0.03,-8.56 -0.26,-13.19 -1.18,-19.57 l -4.54,-28.78 c -2.66,-12.91 -1.35,-15.51 -2.12,-19.08 -5.48,-25.37 -3.75,-23.17 -5.8,-49.22 -1.02,-13.06 -5.04,-26.05 -6.02,-37.89 -1.51,-18.24 -1.3,-12.74 -4.21,-27.33 -1.35,-6.82 1.57,-2.88 -3.11,-6.12 -0.76,-16.18 -3.44,-21.09 -7.44,-34.99 -12.7,-44.17 -22.55,-78.05 -53.04,-115.49 l -27.72,-34.61 -22.54,-19.8 c -36.8,-26.43 -79.7,-49.39 -122.39,-64.11 -19.66,-6.79 -43.27,-14.01 -58.76,-24.67 l -63.73,-51.3 c -0.44,-0.29 -3.83,-2.24 -3.84,-2.25 l -8.52,-6.64 c -3.07,-1.78 -5.16,-1.75 -7.44,-3.19 -2.38,-1.51 -7.57,-8.09 -9.43,-10.33 l -28.29,-35.42 c -9.6,-13.62 -18.98,-33.67 -19.81,-34.87 -0.16,-0.24 -0.48,-0.56 -0.66,-0.79 l -2.91,-3.14 c -3.65,-4.41 -4.65,-9.19 -7.21,-14.22 -2.83,-5.53 -4.7,-5.82 -7.01,-12.39 -3.7,-10.56 -6.93,-20.52 -10.09,-32.53 -3.76,-14.29 -3.46,-20.03 -5.66,-35.48 -10.38,-72.96 -1.82,-70.33 14.52,-141.22 8.44,-36.6 5.5,-28.33 19.39,-64.31 l 25.56,-57.35 -2.16,-5.84 c -5.58,2.01 -4.86,2.73 -8.03,7.53 -2.82,4.29 -4.15,5.11 -5.82,8.73 z"
   class="fil15" />
  <path
   style="fill:#696969"
   id="path39"
   d="m 2630.15,2232.95 -4.65,11.36 c -7.69,15.96 -17.79,33.29 -31.84,42.7 -7.12,0 -18.17,1.63 -22.08,0.97 -24.73,-4.2 -29.48,-0.52 -58.27,-16.17 -4.24,-1.48 -7.57,-2.68 -10.2,-6.07 -12.42,-4.57 -33.03,-30.35 -41.11,-44.2 -33.31,-57.08 -13.61,-134.98 47.07,-172.23 12.75,-7.83 15.2,-9.06 32.16,-5.49 25.42,5.36 49.01,23.01 63.37,42.75 29.44,40.47 41.98,94.12 25.55,146.38 z m 7.87,47.78 c 73.2,-39.1 95.68,-130.4 49,-199.27 -8.69,-12.83 -17.65,-21 -29,-30.11 -17.58,-14.12 -57.45,-31.78 -88.54,-27.82 -22.88,2.77 -41.88,5.54 -60.37,16.75 -10.89,6.61 -25.28,16.75 -33.15,25.93 l -23.45,34.1 c -33.79,63.24 -3.19,151.36 61.47,181.5 17.92,8.35 40.06,15.04 63,14.42 38.16,-1.03 42.47,-10.49 61.04,-15.5 z"
   class="fil16" />
  <path
   style="fill:#bababa"
   id="path41"
   d="m 2105.59,1491.82 -4.25,-4.22 c -7.42,-5.5 -26.71,-14.24 -34.94,-17.88 -36.65,-16.2 -79.45,-24.14 -118.01,-51.95 -6.23,-4.5 -3.27,-3.94 -11.15,-6.76 -2.32,2.42 -1.38,1.15 -4.68,-0.31 -0.47,6.59 -3.16,8.13 -6.06,12.09 -1.28,1.74 -2.14,3.17 -3.89,5.19 -3.03,3.52 -0.54,1.49 -5.15,3.88 3.43,8.23 -7.98,14.83 -15.8,22.18 -9.34,8.78 -14.38,11.06 -26.46,14.15 9.31,13.02 62.06,45.68 78.66,53.3 l 82.73,41.52 c 4.17,2.16 3.47,1.69 5.55,1.11 2.19,-4.13 0.48,-4.17 0.12,-9.34 3.79,-3.1 2.95,-1.8 5.88,-5.86 2.67,-3.69 1.59,-4.01 7.4,-4.63 -1.07,-5.88 -1.95,-4.33 1.86,-8.74 l 17.66,-17.3 c 7.23,-6.53 1.51,-4.21 6.32,-10.29 2.84,-3.58 2.01,-2.78 7.69,-2.97 -2.98,-8.3 5.47,-4.91 11.82,-9.32 2.68,-1.87 2.32,-1.66 4.7,-3.85 z"
   class="fil17" />
  <path
   style="fill:#999999"
   id="path43"
   d="m 2165.36,819.84 c 5.3,16.5 83.63,161.3 84.85,170.57 l -10.05,9.32 c 3.94,4.8 7.91,4.64 13.57,7.32 9.36,-11.98 18.88,-18.24 29.01,-26.98 7.51,-6.48 -1.82,-2.07 18.09,-18.05 l -58.16,-113.13 c -4.76,-8.35 -8.51,-14.7 -12.18,-22.66 -6.03,-13.08 -21.74,-35.45 -23.41,-45.21 -14.23,7.62 -8.15,7.99 -14.26,16.67 -3.27,4.65 -2.82,9.3 -8.8,11.92 -6.84,3 -2.87,1.51 -11.15,7.57 -4.41,3.24 0.41,2.27 -7.51,2.66 z"
   class="fil18" />
  <path
   style="fill:#8c8c8c"
   id="path45"
   d="m 1872.08,1355.43 c -2.19,-3.6 -2.41,-2.54 -5.63,-5.75 -10.29,-10.26 -32,-40.22 -39.69,-52.84 -18.96,-31.13 -20.25,-49.38 -30.85,-72.56 -3.23,-3.03 -2.69,4.24 -2.69,-4.54 -2.49,2.66 -0.31,1.41 -5.96,1.68 l -14.41,1.57 c -3.58,1.23 -2.39,-0.94 -3.75,2.96 -4.16,-0.32 -4.33,-0.7 -7.72,-1.51 -0.09,0.17 -0.26,0.25 -0.26,0.51 0,0.3 -0.15,0.55 -0.15,0.66 0.02,0.25 0.48,2.94 0.55,3.3 -8.01,1.81 -7.02,4.95 -15.16,3.11 -1.89,4.82 0.91,0.7 -2.96,4.4 1.26,2.77 3.39,18.18 4.31,22.82 3.84,19.23 13.56,45.96 21.04,63.67 5.31,12.56 11.84,26.24 18.35,37.81 4.76,8.46 16.98,28.37 22.79,33.33 l 12.07,-1.87 c 6.24,-11.03 4.67,0.01 12.87,-6.54 l 7.98,-5.58 c 4.33,-4.12 1.82,-3.57 6.87,-5.12 5.33,-1.64 1.79,-1.68 7.06,-3.74 -2.19,-1.78 -1.84,-1.16 -2.96,-4.48 10.49,-3.1 1.23,-5.82 10.83,-12.19 2.14,5.58 -1.37,0.69 5.7,4.54 z"
   class="fil19" />
  <path
   style="fill:#7a1515"
   id="path47"
   d="m 2663.1,1097.89 c 19.21,3.97 40.16,10.88 59.31,15.79 9.66,2.48 18.93,5.21 28.59,7.8 8.49,2.28 23.08,3.54 29.74,6.91 l 11.26,3.15 c 3.32,2.05 2.22,0.55 3.73,5.97 l 51.43,183.62 c 3.76,12.99 52.39,182.2 52.73,191.95 l 0.18,3.74 c 3.52,11.2 -1.47,138.75 -1.82,162.27 -0.78,53.81 -1.2,108.28 -2.83,162.17 -2.5,81.91 -1.48,164.32 -4.39,244.07 -0.98,26.8 -0.18,53.97 -1.76,80.41 l -101.1,26.73 -1.67,8.13 c 3.36,-0.87 5.69,-1.12 9.7,-2.12 3.94,-0.98 5.11,-1.67 9.39,-2.74 l 60.35,-15.46 c 3.95,-0.97 6.1,-1.62 9.48,-2.64 l 19.33,-4.93 c 4.18,-2.02 3.69,-4.46 3.7,-9.94 0.04,-17.18 0.01,-34.44 -0.08,-51.62 -0.05,-10.12 1.58,-13.11 1.54,-22.72 l -0.02,-77.34 c -0.05,-10.11 1.58,-13.1 1.53,-22.72 l -0.07,-63.74 c 0.1,-7.15 1.17,-6.39 1.59,-12.06 1.09,-14.76 0.01,-34.72 -0.01,-50.04 -0.02,-10.53 1.54,-15.38 1.54,-24.22 0.02,-76.11 3.14,-151.72 3,-225.92 -0.02,-9.99 1.47,-14.8 1.58,-22.68 l -0.13,-63.8 c 0.05,-7.48 0.19,-6.21 3.1,-10.55 l -1.42,-1.61 c -2.94,-5.13 -17.02,-58.64 -20.41,-70.55 L 2842,1271.57 c -0.95,-3.58 -2.43,-7.09 -3.67,-11.49 l -24.25,-86.42 c -2.56,-9.1 -4.77,-16 -6.98,-24.86 -7.12,-28.69 -4.14,-25.1 -24.06,-28.99 l -119.83,-28.93 z"
   class="fil13" />
  <path
   style="fill:#f25454"
   id="path49"
   d="m 1141.93,1616.99 0.68,5.44 c 13.57,5.3 619.84,113.62 699.21,129.42 80.52,16.04 50.55,11.35 125.41,-4.91 20.29,-4.41 40.63,-11.11 60.81,-15.1 26.86,-5.32 105.66,-28.03 121.34,-29.01 l -2.69,-7.04 c -24.1,2.15 -222.12,56.99 -242.43,57.92 -8.71,2.43 -340.44,-61.15 -379.47,-68.72 L 1239.7,1632.1 c -15.95,-3.1 -31.62,-5.66 -47.29,-8.63 -11.34,-2.14 -39.46,-6.12 -47.77,-9.45 z"
   class="fil20" />
  <path
   style="fill:#dd4242"
   id="path51"
   d="m 1974.18,1059.11 c 6.99,3.45 145.67,40.79 150.34,40.54 l 79.21,-77.27 c 1.79,-1.68 1.06,-0.69 2.36,-2.18 2.76,-3.2 1.03,-0.9 2.78,-4.35 z"
   class="fil21" />
  <path
   style="fill:#cdcdcd"
   id="path53"
   d="m 2661.01,1922.46 0.21,-4.66 c 3.08,-2.02 6.46,-4.85 5.66,-2.66 7.64,0.54 8.95,0.95 7.58,6.07 4.23,0.33 5.81,0.88 9.06,1.96 l 7,19.45 c 2.24,5.8 1.14,4.16 4.02,8.53 10.53,-1.19 2.84,-3.04 12.13,-2.97 l -1.59,2.82 c 0.38,6.24 1.48,-1.56 0.51,1.91 -0.05,0.16 -0.3,0.6 -0.37,0.75 l 6.01,2.45 c 5.85,0.48 -0.81,3.16 4.24,8.99 3.39,3.92 2.74,3.53 6.48,1.08 -0.4,3.57 -0.39,2.98 -1.51,6.07 4.3,-0.73 3.68,-0.46 5.8,-0.63 4.29,-0.36 9.1,-1.15 13.52,1.21 3,1.6 2.52,2.14 3.29,5.48 3.99,-2.94 1.01,1.08 2.17,-4.58 -5.16,-14.18 -9.73,-28.25 -15.35,-42.81 -3.76,-9.76 -10.63,-36.48 -17.29,-42.38 -6.15,3.22 -2.28,-1.26 -7.99,0.05 -7.27,1.67 -1.13,-0.47 -3.29,3.75 -6.16,-3.34 -3.52,1.26 -4.16,-5.95 -7.82,8.6 0.03,1.67 -12.85,-3.48 -5.41,-2.16 0,-2 -6.74,-4.92 -7.55,-3.27 -1.45,0.52 -5.61,-5.15 -3.25,-4.42 -7.81,-1.84 -9.67,-9.25 -3.52,3.13 -0.9,-2.75 -3.03,3.09 -0.97,-7.4 1,-1.87 -3.1,-5.98 -3.62,-3.64 0.22,-1.16 -4.48,-3.17 2.79,-1.75 1.7,-0.51 2.97,-4.43 -9.37,-2.66 -3.39,-4.84 -8.49,-11.22 -8.17,-10.23 -5.31,-9.58 -9.64,-7.03 -0.34,-3.41 -0.49,-4.21 -1.17,-6.13 -1.23,-3.47 -0.98,-2.42 -2.65,-4.37 -0.85,6.28 -2.22,-1.03 -3.28,-3.46 -3.92,-8.95 -0.58,-3.17 -5,-5.36 -0.52,-6.25 -1,-8.29 -4.97,-10.91 -0.61,1.58 -2.77,-2.69 0.9,7.05 l 7.9,22.62 c 3.22,10.06 6.62,19.43 9.75,29.61 l 22.08,57.52 c 0.13,-0.27 0.64,0.68 0.95,1.04 z"
   class="fil22" />
  <path
   style="fill:#7a1515"
   id="path55"
   d="m 1775.16,995.16 5.37,-8.88 c -4.79,-2.41 -10.48,-20.6 -13.08,-25.78 l -19.23,-41.41 c -8.3,-17.3 -16.96,-31.17 -12.02,-45.92 3.63,-10.85 12.46,-9.89 27.06,-12.35 l 104.35,-18.44 c 44.2,-8.97 94.83,-15.51 137.96,-24.26 22.64,-4.6 45.95,-7.61 68.22,-12.13 4.65,-0.94 63.22,-12.94 67.74,-10.73 l -4.36,-8.76 c -46.06,6.25 -95.39,16.51 -141.76,24.9 -46.48,8.41 -94.17,16.34 -141.46,25.02 -23.71,4.35 -47.13,8.55 -70.77,12.48 -10.94,1.81 -43.11,4.73 -49.95,12.22 -3.63,3.98 -5.01,8.69 -6.3,14.65 -3.84,17.78 14.28,46.43 20.93,61.89 4.47,10.4 21.99,51.96 27.3,57.5 z"
   class="fil13" />
  <path
   style="fill:#b4b4b4"
   id="path57"
   d="m 1786.3,1155.68 c 0.32,-11 -0.37,-21.99 0.09,-33.03 0.36,-8.72 2.53,-24.04 1.6,-31.62 l 0.25,-8.88 c -6.62,3.19 2.04,1.52 -5.25,2.68 l -25.13,-2.56 c -3.46,-3.38 2.7,0.03 -0.91,-0.09 l -6.85,-0.38 c -0.12,0.08 -0.43,0.43 -0.54,0.53 l -1.68,-2.93 c -11.76,17.82 -10.69,78.78 -9.57,100.21 8.25,-0.86 8.29,-6.35 23.07,-9.01 3.29,-0.6 0.56,0.62 2.55,-4.39 9.01,0 12.39,-1.52 19.39,-1.52 0.12,-10.03 0.51,-7.52 2.98,-9.01 z"
   class="fil23" />
  <path
   style="fill:#f8f7f7"
   id="path59"
   d="m 2158.67,1109.57 c -3.54,5.71 -2.95,5.18 -8.61,7.38 l -3.64,0.65 c 3.84,4.72 4.6,3.52 12.15,3.32 l 45.04,-41.1 c 2.85,-3.2 5.58,-8.5 13.32,-15.35 4.33,-3.83 6.41,-4.72 10.58,-9.33 7.6,-8.41 16.28,-14.05 29.27,-28.31 3.29,-3.61 6.7,-7.34 9.78,-9.8 8.93,-7.17 4.85,-6.29 9.81,-9.95 11.25,-8.29 0.86,3.19 21.25,-16.69 7.64,-7.44 13.16,-12.75 20.61,-18.7 -0.35,-10.44 -29.92,-64.64 -34.85,-75.3 -5.77,-12.49 -12.44,-23.55 -18.62,-35.82 l -53.9,-109.92 c -6.09,-12.25 -12.1,-24.05 -18.74,-36.01 -2.26,-4.07 -18.75,-30.23 -19.1,-33.08 l -4.77,-0.83 c -4.17,0.87 -2.6,-1.33 -1.57,3.02 1.35,5.69 144.2,275.66 143.57,279.79 -3.55,6.66 -12.28,13.26 -18.05,18.43 -12.34,11.02 -11.61,12.05 -18.76,19.12 l -28.65,25.95 c -1.8,1.67 -3.07,2.64 -4.71,4.38 -2.02,2.14 -2.66,3.74 -4.63,5.95 l -28.54,26.07 c -4.42,3.97 -5.36,6.5 -9.3,10.38 z"
   class="fil24" />
  <path
   style="fill:#fcfbfb"
   id="path61"
   d="m 2679.79,2000.21 c -5.07,-4.98 -7.28,-7.78 -11.15,-12.64 -7.69,-1.72 -13.14,-5.85 -19.87,-9 -7.29,-3.41 -12.2,-5.09 -19.7,-7.03 -55.6,-14.38 -130.51,-1.04 -174.17,32.69 l -29.74,24.83 c -16.46,17.05 -32.15,41.59 -30.02,77.41 6.62,-0.1 6.33,-0.94 7.38,-7.47 8.69,-53.95 50.74,-86.45 100.67,-107.03 25.6,-10.56 64.38,-17.25 96.18,-13.87 17.74,1.88 30.69,4.69 45.74,10.47 20.56,7.88 27.97,18.37 36.06,17.44 -0.01,-3.33 -0.13,-3.01 -1.38,-5.8 z"
   class="fil25" />
  <path
   style="fill:#e03f3f"
   id="path63"
   d="m 2658.97,1157.59 -0.12,-4.07 c 17.12,-1.64 42.91,-8.83 60.59,-12.62 14.58,-3.12 48.44,-12.79 61.3,-12.51 -6.66,-3.37 -21.25,-4.63 -29.74,-6.91 -9.66,-2.59 -18.93,-5.32 -28.59,-7.8 -19.15,-4.91 -40.1,-11.82 -59.31,-15.79 z"
   class="fil26" />
  <path
   style="fill:#7d7d7d"
   id="path65"
   d="m 2556.65,1678.68 c 0.58,10.59 84.94,233.83 97.61,268.73 4.53,12.47 10.97,27.24 14.38,40.16 3.87,4.86 6.08,7.66 11.15,12.64 1.6,-0.77 1.75,2.93 0.86,-3.2 l -118.6,-321.46 c -7.93,-5.46 -5.42,2.78 -5.4,3.13 z"
   class="fil27" />
  <path
   style="fill:#f25454"
   id="path67"
   d="m 2598.29,1584.64 1.89,7.65 c 48.37,-14.15 102.04,-25.01 150.3,-36.71 l 131.8,-31.89 c 7.54,-1.8 13.22,-2.04 17.79,-6.87 l -0.18,-3.74 c -7.87,-2.5 -30.55,5.05 -38.82,7.12 -12.79,3.22 -25.16,6.41 -37.97,9.53 -24.79,6.05 -50.17,12.44 -75.46,18.57 -24.54,5.95 -50.94,13.39 -75.52,18.4 -24.28,4.95 -49.79,13.53 -73.83,17.94 z"
   class="fil20" />
  <path
   style="fill:#e5e3e3"
   id="path69"
   d="m 1771.26,1021.49 c 0.41,10.86 3.24,7.56 7.87,8.51 l 2.49,1.01 c 1.84,0.48 14.09,1.04 17.65,-0.75 l 0.73,2.46 c 3,-2.69 16.88,-49.18 20,-57.19 3.73,-9.59 7.2,-19.06 11.19,-28.3 3.88,-8.99 9.2,-18.78 12.29,-28.02 -2,1.48 -0.99,0.51 -2.77,2.38 -0.03,0.02 -2.28,2.62 -2.83,3.24 -18.09,20.12 -64.13,79.61 -66.62,96.66 z"
   class="fil28" />
  <path
   style="fill:#7a1515"
   id="path71"
   d="m 1961.83,1052.98 c 1.65,5.4 5.43,4.96 12.35,6.13 l 234.69,-43.26 c 3.56,-2.99 7.94,-6.69 10.41,-9.86 -7.13,0 -9.76,0.91 -16.11,2.16 l -144.55,26.75 c -10.02,2.01 -21.53,4.39 -31.94,5.96 -10.24,1.54 -21.86,3.9 -31.96,5.95 z"
   class="fil13" />
  <path
   style="fill:#cdcdcd"
   id="path73"
   d="m 1747.88,1079.4 1.68,2.93 c 0.11,-0.1 0.42,-0.45 0.54,-0.53 l 6.85,0.38 c 3.61,0.12 -2.55,-3.29 0.91,0.09 l 25.13,2.56 c 7.29,-1.16 -1.37,0.51 5.25,-2.68 l -0.25,8.88 12.01,-58.31 -0.73,-2.46 c -3.56,1.79 -15.81,1.23 -17.65,0.75 l -2.49,-1.01 c -4.63,-0.95 -7.46,2.35 -7.87,-8.51 -9.72,8.01 -19.88,44.49 -23.38,57.91 z"
   class="fil22" />
  <path
   style="fill:#f2f2f2"
   id="path75"
   d="m 2638.02,2280.73 c 3.25,4.36 31.17,-19.32 34.4,-22.58 36.4,-36.7 53.64,-79.16 38.41,-135.41 -13.88,-51.24 -57.19,-94.64 -111.05,-101.02 -5.57,-0.66 -25.7,-2.2 -30.3,1.81 31.09,-3.96 70.96,13.7 88.54,27.82 11.35,9.11 20.31,17.28 29,30.11 46.68,68.87 24.2,160.17 -49,199.27 z"
   class="fil29" />
  <path
   style="fill:#f25454"
   id="path77"
   d="m 2658.97,1157.59 -0.41,4.74 129.72,-28.29 c 3.19,-1.14 2.03,-0.78 3.72,-2.5 l -11.26,-3.15 c -12.86,-0.28 -46.72,9.39 -61.3,12.51 -17.68,3.79 -43.47,10.98 -60.59,12.62 z"
   class="fil20" />
  <path
   style="fill:#7a1515"
   id="path79"
   d="m 2503.11,2265.74 c 2.63,3.39 5.96,4.59 10.2,6.07 l 1.94,-1.07 c 0.56,-0.2 2.98,-0.94 3.47,-1.06 l 92.82,-23.92 c 8.5,-2.14 9.89,-4.02 13.96,-1.45 l 4.65,-11.36 z"
   class="fil13" />
  <path
   style="fill:#cac8c8"
   id="path81"
   d="m 2539.94,1613.88 c -11.88,-19.88 -10.45,-45.67 -31.21,-55.24 l 25.42,56.32 c 0.33,-0.22 0.75,-1.06 0.98,-0.69 l 2.9,-0.54 c 0.47,-0.03 1.27,0.13 1.91,0.15 z"
   class="fil30" />
  <path
   style="fill:#d9d7d7"
   id="path83"
   d="m 2451.82,2360.09 c -3.27,-5.24 -1.9,-2.54 -6.53,-6.63 l -31.9,-31.66 c -4.81,-5.3 -3.65,-3.67 -7.54,-4.88 4.32,12.4 31.15,37.01 45.97,43.17 z"
   class="fil31" />
  <path
   style="fill:#949494"
   id="path85"
   d="m 2556.65,1678.68 c -0.02,-0.35 -2.53,-8.59 5.4,-3.13 l -10.7,-29.43 c -6.84,-3.99 -6.52,2.5 -5.01,7.58 1.89,6.35 5.54,21.09 10.31,24.98 z"
   class="fil32" />
  <path
   style="fill:#000000;fill-rule:nonzero"
   id="path87"
   d="m 1531.84,2299.72 v -115.87 l -234.96,-49.01 v -96.16 l 249.18,-314.55 92.8,19.36 v 366.13 l 71.62,14.94 v 96.55 l -71.62,-14.93 v 115.87 z m 0,-212.43 v -196.74 l -131.69,169.27 z"
   class="fil33" />
 </g>
</svg>