<?xml version="1.0" encoding="UTF-8" standalone="no"?>
<svg
   xmlns:dc="http://purl.org/dc/elements/1.1/"
   xmlns:cc="http://creativecommons.org/ns#"
   xmlns:rdf="http://www.w3.org/1999/02/22-rdf-syntax-ns#"
   xmlns:svg="http://www.w3.org/2000/svg"
   xmlns="http://www.w3.org/2000/svg"
   id="svg8"
   version="1.1"
   viewBox="0 0 65 65"
   height="65mm"
   width="65mm">
  <defs
     id="defs2" />
  <metadata
     id="metadata5">
    <rdf:RDF>
      <cc:Work
         rdf:about="">
        <dc:format>image/svg+xml</dc:format>
        <dc:type
           rdf:resource="http://purl.org/dc/dcmitype/StillImage" />
        <dc:title></dc:title>
      </cc:Work>
    </rdf:RDF>
  </metadata>
  <g
     transform="translate(0,-232)"
     id="layer1">
    <path
       id="path4545"
       transform="matrix(0.26458333,0,0,0.26458333,0,232)"
       d="M 16.199219 0 C 5.2488433 0 0.01171875 5.0906807 0.01171875 14.849609 C 0.01171875 25.032753 5.2472334 29.27692 18.578125 29.701172 L 99.029297 120.5 L 20.472656 216.39258 C 6.6656615 216.81691 0 221.05951 0 230.81836 C 0 239.72867 6.6663527 245.66992 17.140625 245.66992 L 79.033203 245.66992 C 93.316306 245.66992 99.505859 243.12303 99.505859 230.81836 C 99.505859 219.36227 92.363873 215.96875 74.748047 215.96875 C 70.939224 215.96875 66.65407 215.96829 62.369141 216.39258 L 120.92969 143.41406 L 154.73047 184.86328 L 32.917969 0 L 16.199219 0 z M 169.49219 215.96875 C 152.35247 215.96875 145.6875 219.36227 145.6875 230.81836 C 145.6875 243.12303 151.87706 245.66992 166.16016 245.66992 L 194.79883 245.66992 L 175.38672 216.21094 C 173.33197 216.0949 171.33609 215.96875 169.49219 215.96875 z "
       style="font-style:normal;font-variant:normal;font-weight:normal;font-stretch:normal;font-size:118.9184494px;line-height:1.25;font-family:'Courier 10 Pitch';-inkscape-font-specification:'Courier 10 Pitch, Normal';font-variant-ligatures:normal;font-variant-caps:normal;font-variant-numeric:normal;font-feature-settings:normal;text-align:start;letter-spacing:0px;word-spacing:0px;writing-mode:lr-tb;text-anchor:start;fill:#008000;fill-opacity:1;stroke:none;stroke-width:11.23638916" />
    <path
       transform="matrix(0.26458333,0,0,0.26458333,0,232)"
       id="path4543"
       d="M 51.433594 0 L 71.265625 30.103516 C 84.562245 29.875589 91.898438 24.000725 91.898438 14.849609 C 91.898438 5.0906807 86.186244 1.1842379e-15 74.759766 0 L 51.433594 0 z M 170.9375 0 C 159.51102 0 152.36914 5.9392981 152.36914 14.849609 C 152.36914 24.184173 160.93899 30.125 176.65039 30.125 C 178.55481 30.125 181.4105 30.125462 183.79102 29.701172 L 122.83398 96.316406 L 91.84375 61.339844 L 213.27539 245.66992 L 228.05273 245.66992 C 238.52701 245.66992 245.66992 239.72867 245.66992 230.81836 C 245.66992 221.48376 239.00472 216.81691 225.67383 216.39258 L 144.73633 119.22852 L 225.21289 29.701172 C 239.49599 29.701172 245.68555 25.45708 245.68555 14.849609 C 245.68555 5.0906807 240.44842 1.1842379e-15 229.49805 0 L 170.9375 0 z "
       style="font-style:normal;font-variant:normal;font-weight:normal;font-stretch:normal;font-size:118.9184494px;line-height:1.25;font-family:'Courier 10 Pitch';-inkscape-font-specification:'Courier 10 Pitch, Normal';font-variant-ligatures:normal;font-variant-caps:normal;font-variant-numeric:normal;font-feature-settings:normal;text-align:start;letter-spacing:0px;word-spacing:0px;writing-mode:lr-tb;text-anchor:start;fill:#00ff00;fill-opacity:1;stroke:none;stroke-width:11.23638916" />
  </g>
</svg>
