<?xml version="1.0" encoding="UTF-8" standalone="no"?>
<!-- Created with Inkscape (http://www.inkscape.org/) -->

<svg
   xmlns:dc="http://purl.org/dc/elements/1.1/"
   xmlns:cc="http://creativecommons.org/ns#"
   xmlns:rdf="http://www.w3.org/1999/02/22-rdf-syntax-ns#"
   xmlns:svg="http://www.w3.org/2000/svg"
   xmlns="http://www.w3.org/2000/svg"
   xmlns:sodipodi="http://sodipodi.sourceforge.net/DTD/sodipodi-0.dtd"
   xmlns:inkscape="http://www.inkscape.org/namespaces/inkscape"
   width="23.812496mm"
   height="23.8125mm"
   viewBox="0 0 23.812496 23.8125"
   version="1.1"
   id="svg8"
   inkscape:version="0.92.3 (2405546, 2018-03-11)"
   sodipodi:docname="icon-paidmedia.svg">
  <defs
     id="defs2" />
  <sodipodi:namedview
     id="base"
     pagecolor="#ffffff"
     bordercolor="#666666"
     borderopacity="1.0"
     inkscape:pageopacity="0.0"
     inkscape:pageshadow="2"
     inkscape:zoom="5.6"
     inkscape:cx="37.287879"
     inkscape:cy="26.867739"
     inkscape:document-units="mm"
     inkscape:current-layer="layer1"
     showgrid="false"
     fit-margin-top="0"
     fit-margin-left="0"
     fit-margin-right="0"
     fit-margin-bottom="0"
     inkscape:window-width="1920"
     inkscape:window-height="1178"
     inkscape:window-x="1912"
     inkscape:window-y="1192"
     inkscape:window-maximized="1" />
  <metadata
     id="metadata5">
    <rdf:RDF>
      <cc:Work
         rdf:about="">
        <dc:format>image/svg+xml</dc:format>
        <dc:type
           rdf:resource="http://purl.org/dc/dcmitype/StillImage" />
        <dc:title></dc:title>
      </cc:Work>
    </rdf:RDF>
  </metadata>
  <g
     inkscape:label="Ebene 1"
     inkscape:groupmode="layer"
     id="layer1"
     transform="translate(-93.927083,-143.73066)">
    <path
       id="path835"
       d="m 99.21875,146.37649 c -1.455209,0 -2.645834,1.19062 -2.645834,2.64583 0,1.45521 1.190625,2.64584 2.645834,2.64584 1.45521,0 2.64583,-1.19063 2.64583,-2.64584 0,-1.45521 -1.19062,-2.64583 -2.64583,-2.64583 z m -0.3175,1.905 c 0.05292,0.0529 0.132291,0.10583 0.211666,0.13229 l 0.555625,0.18521 c 0,0 0.02646,0 0.02646,0 v 0 c 0,0 0,0 0.02646,0 0.238125,0.0794 0.449789,0.21167 0.608539,0.39687 0.21167,0.23813 0.3175,0.52917 0.3175,0.82021 -0.0265,0.3175 -0.15875,0.635 -0.42333,0.84667 -0.13229,0.10583 -0.291041,0.21167 -0.449791,0.26458 -0.05292,0.23813 -0.264584,0.44979 -0.529167,0.44979 -0.238125,0 -0.449792,-0.15875 -0.502708,-0.39687 -0.396875,-0.0794 -0.635,-0.23813 -0.687917,-0.23813 -0.264583,-0.13229 -0.343958,-0.47625 -0.211667,-0.71437 0.132292,-0.26458 0.47625,-0.34396 0.714375,-0.21167 0,0 0.264584,0.13229 0.582084,0.15875 0.132291,0 0.264583,-0.0265 0.370416,-0.10583 0.02646,-0.0265 0.05292,-0.0529 0.05292,-0.10583 0,0 0,-0.0265 -0.02646,-0.0529 -0.05292,-0.0529 -0.105834,-0.0794 -0.211667,-0.13229 l -0.555625,-0.18521 c 0,0 -0.02646,0 -0.02646,0 h -0.02646 c 0,0 0,0 -0.02646,0 -0.238125,-0.10583 -0.449792,-0.21167 -0.608542,-0.39688 -0.211666,-0.23812 -0.3175,-0.52916 -0.3175,-0.8202 0.02646,-0.3175 0.15875,-0.635 0.423334,-0.84667 0.132291,-0.13229 0.291041,-0.21167 0.47625,-0.26458 0.05292,-0.23813 0.264583,-0.42334 0.529166,-0.42334 0.238125,0 0.449792,0.18521 0.502709,0.39688 0.37042,0.0794 0.635,0.21166 0.66146,0.23812 0.26458,0.13229 0.34396,0.47625 0.21167,0.71438 -0.1323,0.26458 -0.4498,0.34396 -0.71438,0.21166 0,0 -0.264584,-0.13229 -0.582084,-0.15875 -0.132291,-0.0264 -0.264583,0.0265 -0.370416,0.10584 -0.02646,0.0265 -0.05292,0.0529 -0.05292,0.10583 0.02646,-0.0265 0.02646,0 0.05292,0.0265 z m 13.54667,2.32833 c -2.91042,0 -5.29167,2.38125 -5.29167,5.29167 v 6.35 c 0,2.91042 2.38125,5.29167 5.29167,5.29167 1.4552,0 2.77812,-0.58209 3.73062,-1.56105 0.97896,-0.9525 1.56104,-2.27541 1.56104,-3.73062 v -6.35 c 0,-2.91042 -2.38125,-5.29167 -5.29166,-5.29167 z m 2.64583,8.73125 h -5.29167 c -0.29104,0 -0.52916,-0.23812 -0.52916,-0.52916 0,-0.29105 0.23812,-0.52917 0.52916,-0.52917 h 2.11667 v -0.37042 c -0.47625,-0.21166 -0.79375,-0.66146 -0.79375,-1.21708 v -1.5875 c 0,-0.52917 0.3175,-1.00542 0.79375,-1.21708 v -0.635 c 0,-0.29105 0.23812,-0.52917 0.52917,-0.52917 0.29104,0 0.52916,0.23812 0.52916,0.52917 v 0.635 c 0.47625,0.21166 0.79375,0.66145 0.79375,1.21708 v 1.5875 c 0,0.52917 -0.3175,1.00542 -0.79375,1.21708 v 0.37042 h 2.11667 c 0.29104,0 0.52917,0.23812 0.52917,0.52917 0,0.29104 -0.23813,0.52916 -0.52917,0.52916 z m -2.38125,-4.23333 v 1.5875 c 0,0.13229 -0.13229,0.26458 -0.26458,0.26458 -0.1323,0 -0.26459,-0.13229 -0.26459,-0.26458 v -1.5875 c 0,-0.13229 0.13229,-0.26458 0.26459,-0.26458 0.13229,0 0.26458,0.13229 0.26458,0.26458 z m -3.51896,-8.20208 c 1.50813,0 2.72521,1.24354 2.72521,2.77812 0,0.29104 0.23812,0.52917 0.52917,0.52917 0.29104,0 0.52916,-0.23813 0.52916,-0.52917 0,-2.11667 -1.69333,-3.83646 -3.78354,-3.83646 -2.09021,0 -3.78354,1.71979 -3.78354,3.83646 v 7.01146 c 0,1.61396 -1.27,2.91042 -2.83104,2.91042 -1.56104,0 -2.831044,-1.29646 -2.831044,-2.91042 v -2.40771 c 2.672294,-0.26458 4.762504,-2.51354 4.762504,-5.26521 0,-2.91041 -2.38125,-5.29166 -5.29167,-5.29166 -2.910417,0 -5.291667,2.38125 -5.291667,5.29166 0,2.75167 2.090208,5.00063 4.7625,5.26521 v 2.40771 c 0,2.19604 1.746247,3.96875 3.889377,3.96875 2.14312,0 3.88937,-1.77271 3.88937,-3.96875 v -7.01146 c 0.0265,-1.53458 1.24354,-2.77812 2.72521,-2.77812 z m -13.678957,2.11666 c 0,-2.03729 1.666875,-3.70416 3.704167,-3.70416 2.03729,0 3.70417,1.66687 3.70417,3.70416 0,2.03729 -1.66688,3.70417 -3.70417,3.70417 -2.037292,0 -3.704167,-1.66688 -3.704167,-3.70417 z"
       inkscape:connector-curvature="0"
       style="stroke-width:0.26458332;fill:#ffffff" />
  </g>
</svg>
